<svg width="1119" height="1119" viewBox="0 0 1119 1119" fill="none" xmlns="http://www.w3.org/2000/svg">
<circle cx="559.5" cy="559.5" r="559.5" fill="#DD4A4A"/>
<path d="M701.089 748.229L371.105 418.246C358.088 405.228 358.088 384.123 371.105 371.106C384.123 358.088 405.228 358.088 418.245 371.106L748.229 701.089C761.246 714.107 761.246 735.212 748.229 748.229C735.211 761.247 714.106 761.246 701.089 748.229Z" fill="white"/>
<path d="M701.089 371.107C714.106 358.09 735.211 358.089 748.229 371.107C761.246 384.124 761.246 405.229 748.229 418.247L418.245 748.23C405.228 761.248 384.123 761.248 371.105 748.23C358.088 735.213 358.088 714.108 371.105 701.09L701.089 371.107Z" fill="white"/>
</svg>
