<svg xmlns="http://www.w3.org/2000/svg" id="Layer_2" data-name="Layer 2" viewBox="0 0 411.31 95.77"><defs><style> .cls-1 { fill: #fff; } .cls-2 { fill: #d5e553; } </style></defs><g id="Layer_2-2" data-name="Layer 2"><g><g><path d="M126.08,64.66c-2.34,0-4.27-.67-5.79-2-1.52-1.33-2.27-3.1-2.27-5.29,0-2.52,1.05-4.44,3.15-5.74,2.1-1.31,5.1-1.96,9.01-1.96,1.11,0,2.22.05,3.33.14,0-3.06-1.74-4.59-5.22-4.59-2.52,0-4.98.66-7.39,1.98l-.23-5.13c2.37-1.14,5.28-1.71,8.74-1.71,7.14,0,10.72,3.23,10.72,9.68,0,.45-.02,1.37-.04,2.77-.03,1.4-.04,2.42-.04,3.08,0,3.81.1,6.59.32,8.33h-6.17c-.09-.36-.13-.98-.13-1.85,0-.27.03-.95.09-2.03h-.09c-1.68,2.88-4.34,4.32-7.97,4.32ZM128.29,59.93c1.59,0,2.87-.54,3.85-1.62s1.46-2.64,1.46-4.68c-.72-.06-1.34-.09-1.85-.09-4.62,0-6.93,1.16-6.93,3.47,0,1.95,1.16,2.93,3.47,2.93Z"></path><path d="M154.59,64.75c-3.12,0-5.61-1.11-7.48-3.33s-2.79-5.21-2.79-8.96.95-6.48,2.86-8.74c1.91-2.25,4.39-3.38,7.45-3.38,3.3,0,5.73,1.37,7.29,4.1h.09c-.09-1.98-.13-4.23-.13-6.75v-7.52h7.07v27.11c0,3,.07,5.31.22,6.93h-6.53c-.06-1.38-.09-2.75-.09-4.1h-.09c-1.65,3.09-4.28,4.64-7.88,4.64ZM156.75,59.44c1.59,0,2.88-.65,3.87-1.94.99-1.29,1.49-2.93,1.49-4.91s-.5-3.74-1.51-5-2.33-1.89-3.99-1.89c-1.53,0-2.75.63-3.67,1.89-.92,1.26-1.37,2.9-1.37,4.91s.47,3.71,1.42,5c.95,1.29,2.2,1.94,3.76,1.94Z"></path><path d="M183.9,64.75c-3.12,0-5.61-1.11-7.48-3.33s-2.79-5.21-2.79-8.96.95-6.48,2.86-8.74c1.91-2.25,4.39-3.38,7.45-3.38,3.3,0,5.73,1.37,7.29,4.1h.09c-.09-1.98-.13-4.23-.13-6.75v-7.52h7.07v27.11c0,3,.07,5.31.22,6.93h-6.53c-.06-1.38-.09-2.75-.09-4.1h-.09c-1.65,3.09-4.28,4.64-7.88,4.64ZM186.06,59.44c1.59,0,2.88-.65,3.87-1.94.99-1.29,1.49-2.93,1.49-4.91s-.5-3.74-1.51-5-2.33-1.89-3.99-1.89c-1.53,0-2.75.63-3.67,1.89-.92,1.26-1.37,2.9-1.37,4.91s.47,3.71,1.42,5c.95,1.29,2.2,1.94,3.76,1.94Z"></path><path d="M204.3,64.21v-15.9c0-2.58-.08-5.04-.22-7.38h6.53c.09.93.14,2.27.14,4.01h.09c.84-1.47,1.94-2.6,3.31-3.4,1.37-.79,2.86-1.19,4.48-1.19,3.66,0,6.06,1.58,7.21,4.73.84-1.5,2-2.66,3.47-3.49,1.47-.83,3.06-1.24,4.77-1.24,2.7,0,4.71.89,6.03,2.68s1.98,4.26,1.98,7.41v13.78h-7.07v-11.98c0-4.14-1.19-6.21-3.56-6.21-1.62,0-2.81.69-3.58,2.07s-1.15,3.17-1.15,5.36v10.76h-7.07v-11.39c0-2.22-.26-3.91-.77-5.07-.51-1.16-1.44-1.73-2.79-1.73-1.53,0-2.7.69-3.51,2.07s-1.22,3.14-1.22,5.27v10.85h-7.07Z"></path><path d="M259.37,64.8c-3.84,0-6.95-1.12-9.32-3.35-2.37-2.24-3.56-5.17-3.56-8.8s1.18-6.78,3.54-8.98c2.36-2.21,5.52-3.31,9.48-3.31s6.89,1.12,9.23,3.36,3.51,5.22,3.51,8.94-1.18,6.6-3.54,8.83c-2.36,2.22-5.47,3.33-9.34,3.33ZM259.37,59.71c1.68,0,3.02-.65,4.03-1.94,1-1.29,1.51-3.03,1.51-5.22s-.5-3.98-1.51-5.27c-1.01-1.29-2.35-1.94-4.03-1.94s-2.98.65-3.99,1.96c-1.01,1.31-1.51,3.05-1.51,5.25s.5,3.9,1.51,5.2,2.33,1.96,3.99,1.96Z"></path><path d="M276.85,64.21v-15.9c0-2.58-.08-5.04-.22-7.38h6.53c.09.93.14,2.27.14,4.01h.09c.84-1.47,1.94-2.6,3.31-3.4,1.37-.79,2.86-1.19,4.48-1.19,3.66,0,6.06,1.58,7.21,4.73.84-1.5,2-2.66,3.47-3.49,1.47-.83,3.06-1.24,4.77-1.24,2.7,0,4.71.89,6.03,2.68s1.98,4.26,1.98,7.41v13.78h-7.07v-11.98c0-4.14-1.19-6.21-3.56-6.21-1.62,0-2.81.69-3.58,2.07s-1.15,3.17-1.15,5.36v10.76h-7.07v-11.39c0-2.22-.26-3.91-.77-5.07-.51-1.16-1.44-1.73-2.79-1.73-1.53,0-2.7.69-3.51,2.07s-1.22,3.14-1.22,5.27v10.85h-7.07Z"></path><path d="M332.28,64.8c-4.02,0-7.24-1.09-9.64-3.26-2.4-2.18-3.6-5.19-3.6-9.03,0-3.6,1.13-6.53,3.38-8.78,2.25-2.25,5.21-3.38,8.87-3.38s6.15,1.04,7.99,3.13c1.85,2.09,2.77,5.22,2.77,9.39,0,.69-.03,1.25-.09,1.67h-15.9c.09,1.56.77,2.81,2.03,3.76,1.26.95,2.93,1.42,5,1.42,2.52,0,4.85-.6,6.98-1.8l.13,5.31c-2.1,1.05-4.74,1.58-7.93,1.58ZM326.02,50.12h9.64c0-3.33-1.52-5-4.55-5-1.32,0-2.45.44-3.4,1.31-.95.87-1.51,2.1-1.69,3.69Z"></path><path d="M346.65,64.21v-15.9c0-2.58-.08-5.04-.22-7.38h6.67c.12,1.32.18,2.64.18,3.96h.09c.87-1.38,2.01-2.48,3.42-3.31,1.41-.83,2.93-1.24,4.55-1.24,2.91,0,5.09.87,6.53,2.61,1.44,1.74,2.16,4.23,2.16,7.47v13.78h-7.03v-11.12c0-2.46-.26-4.26-.79-5.38-.53-1.13-1.58-1.69-3.17-1.69-1.98,0-3.45.9-4.41,2.7-.63,1.26-.95,3-.95,5.22v10.27h-7.03Z"></path><path d="M386,64.53c-2.88,0-4.98-.68-6.3-2.05s-1.98-3.55-1.98-6.55v-10h-4.46v-5h4.68v-5.09l6.67-2.25v7.34h5.58v5h-5.58v9.1c0,1.41.23,2.48.7,3.22.47.74,1.36,1.1,2.68,1.1.93,0,1.73-.11,2.39-.32l.18,4.95c-1.35.36-2.87.54-4.55.54Z"></path><path d="M401.13,64.75c-2.79,0-5.39-.41-7.79-1.22l.36-5.31c2.4,1.11,4.79,1.67,7.16,1.67.99,0,1.82-.19,2.5-.58.68-.39,1.01-.93,1.01-1.62s-.29-1.22-.86-1.6-1.79-.85-3.65-1.42c-2.4-.69-4.11-1.55-5.13-2.57s-1.53-2.46-1.53-4.32c0-2.28.88-4.09,2.63-5.43,1.76-1.33,4.13-2,7.14-2,2.79,0,5.12.39,6.98,1.17l-.54,5.04c-2.1-.96-4.11-1.44-6.03-1.44-1.02,0-1.84.2-2.45.59-.62.39-.92.93-.92,1.62s.28,1.16.83,1.51c.55.35,1.7.76,3.44,1.24,2.31.63,4.06,1.45,5.25,2.45s1.78,2.54,1.78,4.62c0,2.4-.92,4.27-2.75,5.61-1.83,1.34-4.31,2-7.43,2Z"></path></g><g><rect class="cls-2" width="95.77" height="95.77" rx="12" ry="12"></rect><g><rect x="14.85" y="18.66" width="66.07" height="58.44" rx="12" ry="12"></rect><g><path class="cls-2" d="M63.87,27.49v12.46c0,1.17,1.03,2.28,2.23,2.23s2.23-.98,2.23-2.23v-12.46c0-1.17-1.03-2.28-2.23-2.23s-2.23.98-2.23,2.23h0Z"></path><g><line class="cls-1" x1="59.87" y1="33.72" x2="72.33" y2="33.72"></line><path class="cls-2" d="M59.87,35.95c3.63,0,7.26,0,10.89,0,.52,0,1.05,0,1.57,0,1.17,0,2.28-1.03,2.23-2.23s-.98-2.23-2.23-2.23c-3.63,0-7.26,0-10.89,0-.52,0-1.05,0-1.57,0-1.17,0-2.28,1.03-2.23,2.23s.98,2.23,2.23,2.23h0Z"></path></g></g><path class="cls-2" d="M40.01,66.28c-8.57,0-15.54-6.97-15.54-15.54s6.97-15.54,15.54-15.54,15.54,6.97,15.54,15.54-6.97,15.54-15.54,15.54ZM40.01,41.45c-5.13,0-9.3,4.17-9.3,9.3s4.17,9.3,9.3,9.3,9.3-4.17,9.3-9.3-4.17-9.3-9.3-9.3Z"></path></g></g></g></g></svg>
