<?xml version="1.0" encoding="UTF-8"?> <svg xmlns="http://www.w3.org/2000/svg" id="Layer_2" data-name="Layer 2" viewBox="0 0 95.77 95.77"><defs><style> .cls-1 { fill: #fff; } .cls-2 { fill: #d5e553; } </style></defs><g id="Layer_2-2" data-name="Layer 2"><rect class="cls-2" x="0" width="95.77" height="95.77" rx="12" ry="12"></rect><g><rect x="14.85" y="18.66" width="66.07" height="58.44" rx="12" ry="12"></rect><g><path class="cls-2" d="M63.87,27.49v12.46c0,1.17,1.03,2.28,2.23,2.23s2.23-.98,2.23-2.23v-12.46c0-1.17-1.03-2.28-2.23-2.23s-2.23.98-2.23,2.23h0Z"></path><g><line class="cls-1" x1="59.87" y1="33.72" x2="72.33" y2="33.72"></line><path class="cls-2" d="M59.87,35.95c3.63,0,7.26,0,10.89,0,.52,0,1.05,0,1.57,0,1.17,0,2.28-1.03,2.23-2.23s-.98-2.23-2.23-2.23c-3.63,0-7.26,0-10.89,0-.52,0-1.05,0-1.57,0-1.17,0-2.28,1.03-2.23,2.23s.98,2.23,2.23,2.23h0Z"></path></g></g><path class="cls-2" d="M40.01,66.28c-8.57,0-15.54-6.97-15.54-15.54s6.97-15.54,15.54-15.54,15.54,6.97,15.54,15.54-6.97,15.54-15.54,15.54ZM40.01,41.45c-5.13,0-9.3,4.17-9.3,9.3s4.17,9.3,9.3,9.3,9.3-4.17,9.3-9.3-4.17-9.3-9.3-9.3Z"></path></g></g></svg> 