<svg width="500" height="500" viewBox="0 0 500 500" fill="none" xmlns="http://www.w3.org/2000/svg">
<path d="M472.222 388.766C487.563 388.766 500 401.205 500 416.551C500 431.897 487.563 444.337 472.222 444.337H27.7775C12.4363 444.337 0 431.897 0 416.551C0 401.205 12.4363 388.766 27.7775 388.766H472.222Z" fill="black"/>
<path d="M472.222 222.047C487.563 222.047 500 234.487 500 249.832C500 265.178 487.563 277.618 472.222 277.618H27.7775C12.4363 277.618 0 265.178 0 249.832C0 234.487 12.4363 222.047 27.7775 222.047H472.222Z" fill="black"/>
<path d="M472.222 55.3359C487.563 55.3359 500 67.7758 500 83.1214C500 98.4671 487.563 110.907 472.222 110.907H27.7775C12.4363 110.907 0 98.4671 0 83.1214C0 67.7758 12.4363 55.3359 27.7775 55.3359H472.222Z" fill="black"/>
</svg>
