<svg width="500" height="500" viewBox="0 0 500 500" fill="none" xmlns="http://www.w3.org/2000/svg">
<path d="M341.416 118.173C352.313 107.276 369.982 107.276 380.88 118.173C391.777 129.071 391.777 146.74 380.88 157.637L288.99 249.526L380.88 341.416C391.777 352.313 391.778 369.982 380.88 380.88C369.982 391.778 352.313 391.777 341.416 380.88L249.526 288.99L157.637 380.88C146.74 391.777 129.071 391.777 118.173 380.88C107.276 369.982 107.276 352.313 118.173 341.416L210.062 249.526L118.173 157.637C107.276 146.74 107.276 129.071 118.173 118.173C129.071 107.276 146.74 107.276 157.637 118.173L249.526 210.062L341.416 118.173Z" fill="black"/>
</svg>
