<svg xmlns="http://www.w3.org/2000/svg" width="215" height="56" viewBox="0 0 215 56" fill="none"><rect width="50" height="56" rx="16" fill="#D9F250" fill-opacity="0.2"></rect><path d="M25 34.875C26.5625 34.875 27.8906 34.3281 28.9844 33.2344C30.0781 32.1406 30.625 30.8125 30.625 29.25C30.625 27.6875 30.0781 26.3594 28.9844 25.2656C27.8906 24.1719 26.5625 23.625 25 23.625C23.4375 23.625 22.1094 24.1719 21.0156 25.2656C19.9219 26.3594 19.375 27.6875 19.375 29.25C19.375 30.8125 19.9219 32.1406 21.0156 33.2344C22.1094 34.3281 23.4375 34.875 25 34.875ZM25 32.375C24.125 32.375 23.3854 32.0729 22.7812 31.4688C22.1771 30.8646 21.875 30.125 21.875 29.25C21.875 28.375 22.1771 27.6354 22.7812 27.0312C23.3854 26.4271 24.125 26.125 25 26.125C25.875 26.125 26.6146 26.4271 27.2188 27.0312C27.8229 27.6354 28.125 28.375 28.125 29.25C28.125 30.125 27.8229 30.8646 27.2188 31.4688C26.6146 32.0729 25.875 32.375 25 32.375ZM15 39.25C14.3125 39.25 13.724 39.0052 13.2344 38.5156C12.7448 38.026 12.5 37.4375 12.5 36.75V21.75C12.5 21.0625 12.7448 20.474 13.2344 19.9844C13.724 19.4948 14.3125 19.25 15 19.25H18.9375L21.25 16.75H28.75L31.0625 19.25H35C35.6875 19.25 36.276 19.4948 36.7656 19.9844C37.2552 20.474 37.5 21.0625 37.5 21.75V36.75C37.5 37.4375 37.2552 38.026 36.7656 38.5156C36.276 39.0052 35.6875 39.25 35 39.25H15ZM15 36.75H35V21.75H29.9375L27.6562 19.25H22.3438L20.0625 21.75H15V36.75Z" fill="#1E4236"></path><path d="M67.664 36.288C66.656 36.288 65.816 36.128 65.144 35.808C64.488 35.488 64 35.056 63.68 34.512C63.36 33.968 63.2 33.368 63.2 32.712C63.2 31.976 63.384 31.336 63.752 30.792C64.136 30.232 64.712 29.792 65.48 29.472C66.248 29.152 67.216 28.992 68.384 28.992H71.384C71.384 28.416 71.296 27.944 71.12 27.576C70.96 27.192 70.704 26.912 70.352 26.736C70.016 26.544 69.584 26.448 69.056 26.448C68.432 26.448 67.896 26.584 67.448 26.856C67.016 27.128 66.744 27.544 66.632 28.104H63.488C63.584 27.224 63.88 26.464 64.376 25.824C64.872 25.184 65.528 24.688 66.344 24.336C67.16 23.984 68.064 23.808 69.056 23.808C70.192 23.808 71.176 24 72.008 24.384C72.84 24.752 73.48 25.304 73.928 26.04C74.392 26.76 74.624 27.64 74.624 28.68V36H71.888L71.528 34.152C71.368 34.472 71.16 34.76 70.904 35.016C70.664 35.272 70.384 35.496 70.064 35.688C69.744 35.88 69.384 36.024 68.984 36.12C68.584 36.232 68.144 36.288 67.664 36.288ZM68.432 33.792C68.864 33.792 69.24 33.72 69.56 33.576C69.896 33.416 70.176 33.208 70.4 32.952C70.64 32.696 70.824 32.4 70.952 32.064C71.096 31.728 71.192 31.368 71.24 30.984H68.744C68.248 30.984 67.84 31.048 67.52 31.176C67.216 31.288 66.992 31.456 66.848 31.68C66.704 31.888 66.632 32.136 66.632 32.424C66.632 32.712 66.704 32.96 66.848 33.168C66.992 33.376 67.2 33.536 67.472 33.648C67.744 33.744 68.064 33.792 68.432 33.792ZM82.4007 36.288C81.2967 36.288 80.2967 36.016 79.4007 35.472C78.5207 34.928 77.8247 34.184 77.3127 33.24C76.8007 32.28 76.5447 31.208 76.5447 30.024C76.5447 28.824 76.8007 27.76 77.3127 26.832C77.8247 25.888 78.5207 25.152 79.4007 24.624C80.2967 24.08 81.2967 23.808 82.4007 23.808C83.2808 23.808 84.0488 23.976 84.7048 24.312C85.3768 24.632 85.9128 25.08 86.3128 25.656V18.72H89.5528V36H86.6727L86.3128 34.344C86.0728 34.696 85.7687 35.024 85.4007 35.328C85.0488 35.616 84.6248 35.848 84.1287 36.024C83.6328 36.2 83.0568 36.288 82.4007 36.288ZM83.1207 33.456C83.7607 33.456 84.3287 33.312 84.8248 33.024C85.3207 32.72 85.7048 32.312 85.9768 31.8C86.2648 31.288 86.4087 30.704 86.4087 30.048C86.4087 29.376 86.2648 28.784 85.9768 28.272C85.7048 27.76 85.3207 27.36 84.8248 27.072C84.3287 26.784 83.7607 26.64 83.1207 26.64C82.4967 26.64 81.9287 26.784 81.4167 27.072C80.9207 27.36 80.5367 27.76 80.2647 28.272C79.9927 28.784 79.8567 29.368 79.8567 30.024C79.8567 30.696 79.9927 31.288 80.2647 31.8C80.5367 32.312 80.9207 32.72 81.4167 33.024C81.9287 33.312 82.4967 33.456 83.1207 33.456ZM97.5507 36.288C96.4467 36.288 95.4467 36.016 94.5507 35.472C93.6707 34.928 92.9747 34.184 92.4627 33.24C91.9507 32.28 91.6947 31.208 91.6947 30.024C91.6947 28.824 91.9507 27.76 92.4627 26.832C92.9747 25.888 93.6707 25.152 94.5507 24.624C95.4467 24.08 96.4467 23.808 97.5507 23.808C98.4307 23.808 99.1987 23.976 99.8547 24.312C100.527 24.632 101.063 25.08 101.463 25.656V18.72H104.703V36H101.823L101.463 34.344C101.223 34.696 100.919 35.024 100.551 35.328C100.199 35.616 99.7747 35.848 99.2787 36.024C98.7827 36.2 98.2067 36.288 97.5507 36.288ZM98.2707 33.456C98.9107 33.456 99.4787 33.312 99.9747 33.024C100.471 32.72 100.855 32.312 101.127 31.8C101.415 31.288 101.559 30.704 101.559 30.048C101.559 29.376 101.415 28.784 101.127 28.272C100.855 27.76 100.471 27.36 99.9747 27.072C99.4787 26.784 98.9107 26.64 98.2707 26.64C97.6467 26.64 97.0787 26.784 96.5667 27.072C96.0707 27.36 95.6867 27.76 95.4147 28.272C95.1427 28.784 95.0067 29.368 95.0067 30.024C95.0067 30.696 95.1427 31.288 95.4147 31.8C95.6867 32.312 96.0707 32.72 96.5667 33.024C97.0787 33.312 97.6467 33.456 98.2707 33.456ZM107.229 36V24.096H110.085L110.349 25.704C110.733 25.112 111.237 24.648 111.861 24.312C112.501 23.976 113.237 23.808 114.069 23.808C114.677 23.808 115.221 23.888 115.701 24.048C116.197 24.192 116.629 24.424 116.997 24.744C117.381 25.048 117.701 25.432 117.957 25.896C118.405 25.256 118.989 24.752 119.709 24.384C120.445 24 121.245 23.808 122.109 23.808C123.149 23.808 124.029 24.024 124.749 24.456C125.469 24.872 126.013 25.488 126.381 26.304C126.749 27.12 126.933 28.128 126.933 29.328V36H123.717V29.616C123.717 28.624 123.525 27.864 123.141 27.336C122.773 26.808 122.189 26.544 121.389 26.544C120.845 26.544 120.373 26.68 119.973 26.952C119.573 27.208 119.261 27.584 119.037 28.08C118.813 28.56 118.701 29.152 118.701 29.856V36H115.485V29.616C115.485 28.624 115.293 27.864 114.909 27.336C114.525 26.808 113.917 26.544 113.085 26.544C112.573 26.544 112.117 26.68 111.717 26.952C111.333 27.208 111.029 27.584 110.805 28.08C110.581 28.56 110.469 29.152 110.469 29.856V36H107.229ZM134.981 36.288C133.845 36.288 132.813 36.024 131.885 35.496C130.973 34.968 130.245 34.232 129.701 33.288C129.157 32.344 128.885 31.264 128.885 30.048C128.885 28.816 129.157 27.736 129.701 26.808C130.245 25.864 130.981 25.128 131.909 24.6C132.837 24.072 133.869 23.808 135.005 23.808C136.157 23.808 137.197 24.072 138.125 24.6C139.053 25.128 139.781 25.864 140.309 26.808C140.853 27.736 141.125 28.816 141.125 30.048C141.125 31.28 140.853 32.368 140.309 33.312C139.765 34.24 139.029 34.968 138.101 35.496C137.189 36.024 136.149 36.288 134.981 36.288ZM135.005 33.48C135.517 33.48 135.981 33.352 136.397 33.096C136.829 32.84 137.173 32.456 137.429 31.944C137.701 31.432 137.837 30.8 137.837 30.048C137.837 29.28 137.709 28.648 137.453 28.152C137.197 27.64 136.853 27.256 136.421 27C136.005 26.744 135.541 26.616 135.029 26.616C134.517 26.616 134.045 26.744 133.613 27C133.181 27.256 132.837 27.64 132.581 28.152C132.325 28.648 132.197 29.28 132.197 30.048C132.197 30.8 132.325 31.432 132.581 31.944C132.837 32.456 133.173 32.84 133.589 33.096C134.021 33.352 134.493 33.48 135.005 33.48ZM143.271 36V24.096H146.127L146.391 25.704C146.775 25.112 147.279 24.648 147.903 24.312C148.543 23.976 149.279 23.808 150.111 23.808C150.719 23.808 151.263 23.888 151.743 24.048C152.239 24.192 152.671 24.424 153.039 24.744C153.423 25.048 153.743 25.432 153.999 25.896C154.447 25.256 155.031 24.752 155.751 24.384C156.487 24 157.287 23.808 158.151 23.808C159.191 23.808 160.071 24.024 160.791 24.456C161.511 24.872 162.055 25.488 162.423 26.304C162.791 27.12 162.975 28.128 162.975 29.328V36H159.759V29.616C159.759 28.624 159.567 27.864 159.183 27.336C158.815 26.808 158.231 26.544 157.431 26.544C156.887 26.544 156.415 26.68 156.015 26.952C155.615 27.208 155.303 27.584 155.079 28.08C154.855 28.56 154.743 29.152 154.743 29.856V36H151.527V29.616C151.527 28.624 151.335 27.864 150.951 27.336C150.567 26.808 149.959 26.544 149.127 26.544C148.615 26.544 148.159 26.68 147.759 26.952C147.375 27.208 147.071 27.584 146.847 28.08C146.623 28.56 146.511 29.152 146.511 29.856V36H143.271ZM171.144 36.288C169.928 36.288 168.848 36.032 167.904 35.52C166.976 35.008 166.248 34.288 165.72 33.36C165.192 32.432 164.928 31.368 164.928 30.168C164.928 28.92 165.184 27.824 165.696 26.88C166.224 25.92 166.952 25.168 167.88 24.624C168.824 24.08 169.92 23.808 171.168 23.808C172.352 23.808 173.392 24.064 174.288 24.576C175.2 25.088 175.904 25.792 176.4 26.688C176.912 27.568 177.168 28.568 177.168 29.688C177.168 29.848 177.168 30.032 177.168 30.24C177.168 30.432 177.152 30.632 177.12 30.84H167.256V28.848H173.88C173.832 28.128 173.552 27.544 173.04 27.096C172.544 26.648 171.92 26.424 171.168 26.424C170.608 26.424 170.096 26.552 169.632 26.808C169.168 27.048 168.8 27.416 168.528 27.912C168.256 28.408 168.12 29.032 168.12 29.784V30.48C168.12 31.12 168.248 31.68 168.504 32.16C168.76 32.64 169.112 33.008 169.56 33.264C170.024 33.52 170.544 33.648 171.12 33.648C171.712 33.648 172.208 33.52 172.608 33.264C173.008 32.992 173.312 32.648 173.52 32.232H176.832C176.592 32.984 176.208 33.672 175.68 34.296C175.152 34.904 174.504 35.392 173.736 35.76C172.968 36.112 172.104 36.288 171.144 36.288ZM179.149 36V24.096H182.005L182.245 26.088C182.613 25.4 183.141 24.848 183.829 24.432C184.517 24.016 185.341 23.808 186.301 23.808C187.293 23.808 188.133 24.024 188.821 24.456C189.509 24.872 190.037 25.488 190.405 26.304C190.773 27.12 190.957 28.128 190.957 29.328V36H187.717V29.616C187.717 28.624 187.517 27.864 187.117 27.336C186.717 26.808 186.085 26.544 185.221 26.544C184.677 26.544 184.189 26.68 183.757 26.952C183.325 27.208 182.989 27.584 182.749 28.08C182.509 28.56 182.389 29.152 182.389 29.856V36H179.149ZM198.691 36C197.843 36 197.099 35.872 196.459 35.616C195.835 35.344 195.347 34.904 194.995 34.296C194.643 33.672 194.467 32.824 194.467 31.752V26.808H192.427V24.096H194.467L194.827 20.856H197.707V24.096H200.875V26.808H197.707V31.8C197.707 32.344 197.827 32.72 198.067 32.928C198.307 33.136 198.715 33.24 199.291 33.24H200.803V36H198.691ZM207.854 36.288C206.798 36.288 205.862 36.112 205.046 35.76C204.246 35.408 203.598 34.928 203.102 34.32C202.622 33.696 202.342 32.992 202.262 32.208H205.502C205.566 32.496 205.702 32.768 205.91 33.024C206.118 33.264 206.382 33.456 206.702 33.6C207.022 33.744 207.39 33.816 207.806 33.816C208.254 33.816 208.606 33.76 208.862 33.648C209.134 33.52 209.334 33.36 209.462 33.168C209.606 32.96 209.678 32.752 209.678 32.544C209.678 32.224 209.574 31.984 209.366 31.824C209.174 31.648 208.894 31.504 208.526 31.392C208.158 31.28 207.718 31.16 207.206 31.032C206.678 30.904 206.142 30.76 205.598 30.6C205.07 30.44 204.582 30.24 204.134 30C203.686 29.744 203.326 29.424 203.054 29.04C202.782 28.656 202.646 28.168 202.646 27.576C202.646 26.872 202.838 26.24 203.222 25.68C203.622 25.104 204.182 24.648 204.902 24.312C205.638 23.976 206.51 23.808 207.518 23.808C208.958 23.808 210.102 24.136 210.95 24.792C211.814 25.448 212.318 26.352 212.462 27.504H209.414C209.334 27.12 209.126 26.824 208.79 26.616C208.47 26.408 208.046 26.304 207.518 26.304C206.958 26.304 206.526 26.408 206.222 26.616C205.934 26.824 205.79 27.08 205.79 27.384C205.79 27.608 205.894 27.8 206.102 27.96C206.31 28.12 206.598 28.264 206.966 28.392C207.35 28.504 207.79 28.616 208.286 28.728C209.15 28.936 209.926 29.16 210.614 29.4C211.302 29.624 211.854 29.96 212.27 30.408C212.702 30.856 212.918 31.512 212.918 32.376C212.934 33.112 212.734 33.776 212.318 34.368C211.902 34.96 211.318 35.432 210.566 35.784C209.814 36.12 208.91 36.288 207.854 36.288Z" fill="#1E4236"></path></svg>
