<svg width="726" height="726" viewBox="0 0 726 726" fill="none" xmlns="http://www.w3.org/2000/svg">
<g clip-path="url(#clip0_1809_8)">
<rect width="726" height="726" fill="#D2E820"/>
<path fill-rule="evenodd" clip-rule="evenodd" d="M322.62 526.75H403.546C460.376 526.75 488.79 526.75 509.202 513.36C518.036 507.562 525.624 500.113 531.529 491.439C545.167 471.398 545.167 443.5 545.167 387.704C545.167 331.91 545.167 304.011 531.529 283.971C525.624 275.295 518.036 267.846 509.202 262.05C496.084 253.445 479.666 250.37 454.526 249.271C442.528 249.271 432.2 240.345 429.848 228.795C426.317 211.471 410.824 199 392.83 199H333.336C315.342 199 299.849 211.471 296.319 228.795C293.967 240.345 283.638 249.271 271.641 249.271C246.501 250.37 230.081 253.445 216.966 262.05C208.13 267.846 200.543 275.295 194.638 283.971C181 304.011 181 331.91 181 387.704C181 443.5 181 471.398 194.638 491.439C200.543 500.113 208.13 507.562 216.966 513.36C237.377 526.75 265.792 526.75 322.62 526.75ZM363.083 313.216C321.182 313.216 287.215 346.566 287.215 387.704C287.215 428.844 321.182 462.192 363.083 462.192C404.984 462.192 438.952 428.844 438.952 387.704C438.952 346.566 404.984 313.216 363.083 313.216ZM363.083 343.012C337.943 343.012 317.562 363.021 317.562 387.704C317.562 412.387 337.943 432.398 363.083 432.398C388.224 432.398 408.604 412.387 408.604 387.704C408.604 363.021 388.224 343.012 363.083 343.012ZM449.067 328.113C449.067 319.886 455.86 313.216 464.242 313.216H484.473C492.852 313.216 499.646 319.886 499.646 328.113C499.646 336.342 492.852 343.012 484.473 343.012H464.242C455.86 343.012 449.067 336.342 449.067 328.113Z" fill="black"/>
</g>
<defs>
<clipPath id="clip0_1809_8">
<rect width="726" height="726" rx="177" fill="white"/>
</clipPath>
</defs>
</svg>
